#!OML:ASF E:\Style4\Style4.ASF
:FULLY-SPECIFIED
:DEGREES
3495
root -0.267885 17.358 -1.95428 3.39797 -1.17191 3.78765
lowerback 15.7964 2.67288 -3.18466
upperback 12.8887 3.13859 0.747702
thorax 4.74378 1.32207 2.21528
lowerneck 9.94707 -9.43747 -9.51943
upperneck 35.32 -11.7214 -3.66082
head 10.287 -6.671 -0.30707
rclavicle 3.1408e-014 -7.95139e-015
rhumerus 58.0523 36.1689 -1503.33
rradius 28.2879
rwrist 1441.05
rhand 10.0454 9.45097
rfingers 7.12502
rthumb 35.1694 -17.0654
lclavicle 3.1408e-014 -7.95139e-015
lhumerus 61.8566 7.08023 39.0134
lradius 121.243
lwrist 46.0206
lhand -3.2202 32.6423
lfingers 7.12502
lthumb 22.5026 61.3511
rfemur -29.38 -6.35222 16.7928
rtibia 45.6621
rfoot -18.7542 -15.1917
rtoes -8.34848
lfemur -26.7154 1.98159 -21.7318
ltibia 41.3471
lfoot -17.3601 11.5913
ltoes -18.7868
3496
root -0.263791 17.3652 -1.95107 3.45892 -1.23077 3.81866
lowerback 15.7421 2.68732 -3.26882
upperback 12.87 3.15018 0.730867
thorax 4.74823 1.32262 2.24476
lowerneck 9.9791 -9.45103 -9.48634
upperneck 35.3822 -11.7288 -3.70804
head 10.301 -6.67537 -0.3299
rclavicle -3.10104e-014 5.56597e-015
rhumerus 58.1161 36.2415 -1503.14
rradius 28.2723
rwrist 1441.38
rhand 13.861 9.40038
rfingers 7.12502
rthumb 38.7784 -16.1828
lclavicle -3.10104e-014 5.56597e-015
lhumerus 61.773 6.98716 38.9162
lradius 121.268
lwrist 45.9679
lhand -3.17214 32.559
lfingers 7.12502
lthumb 22.5487 61.2622
rfemur -29.3629 -6.28652 16.7334
rtibia 45.4918
rfoot -18.7315 -15.1198
rtoes -7.98451
lfemur -26.6793 1.97969 -21.7835
ltibia 41.1921
lfoot -17.3143 11.6464
ltoes -18.9838
3497
root -0.259756 17.372 -1.94909 3.54163 -1.25147 3.84471
lowerback 15.6832 2.679 -3.35635
upperback 12.8459 3.1318 0.728721
thorax 4.75 1.30737 2.29526
lowerneck 9.96618 -9.4455 -9.49544
upperneck 35.4614 -11.7079 -3.75109
head 10.3324 -6.67186 -0.346372
rclavicle 1.23246e-014 8.74653e-015
rhumerus 58.1258 36.311 -1503.06
rradius 28.2461
rwrist 1441.63
rhand 17.6411 9.37129
rfingers 7.12502
rthumb 42.3316 -15.1067
lclavicle 1.23246e-014 8.74653e-015
lhumerus 61.6267 7.11117 38.8005
lradius 121.357
lwrist 46.1321
lhand -3.19132 32.5352
lfingers 7.12502
lthumb 22.5303 61.2407
rfemur -29.3629 -6.25724 16.6853
rtibia 45.3163
rfoot -18.6512 -15.1027
rtoes -7.94432
lfemur -26.669 1.96826 -21.8332
ltibia 41.0324
lfoot -17.2282 11.6895
ltoes -18.8738
3498
root -0.255837 17.3825 -1.94825 3.58345 -1.26345 3.78551
lowerback 15.69 2.67302 -3.37084
upperback 12.8342 3.12093 0.765711
thorax 4.73149 1.29945 2.3431
lowerneck 9.90285 -9.43034 -9.58164
upperneck 35.5833 -11.6916 -3.70943
head 10.4022 -6.673 -0.326555
rclavicle -3.06128e-014 2.14687e-014
rhumerus 58.3228 36.422 -1502.68
rradius 28.2044
rwrist 1441.48
rhand 21.4977 9.33924
rfingers 7.12502
rthumb 45.9277 -13.7854
lclavicle -3.06128e-014 2.14687e-014
lhumerus 61.5041 7.22153 38.674
lradius 121.451
lwrist 46.1767
lhand -3.35394 32.7729
lfingers 7.12502
lthumb 22.3742 61.4973
rfemur -29.2957 -6.22104 16.7392
rtibia 45.1102
rfoot -18.5599 -15.1326
rtoes -8.16483
lfemur -26.6157 1.96084 -21.7799
ltibia 40.8668
lfoot -17.1881 11.6855
ltoes -18.6447
3499
root -0.251606 17.3913 -1.94737 3.64015 -1.26371 3.73153
lowerback 15.6624 2.63892 -3.37266
upperback 12.8276 3.07641 0.793402
thorax 4.73991 1.27536 2.37962
lowerneck 9.90311 -9.37774 -9.72298
upperneck 35.6086 -11.6461 -3.61762
head 10.4296 -6.66261 -0.271295
rclavicle 1.31198e-014 -1.74931e-014
rhumerus 58.6847 36.6388 -1502.01
rradius 28.275
rwrist 1440.94
rhand 25.1342 9.0371
rfingers 7.12502
rthumb 49.2844 -12.5534
lclavicle 1.31198e-014 -1.74931e-014
lhumerus 61.4094 7.22792 38.5755
lradius 121.431
lwrist 46.0579
lhand -3.39204 32.9209
lfingers 7.12502
lthumb 22.3377 61.6496
rfemur -29.2239 -6.19091 16.7897
rtibia 44.8702
rfoot -18.4729 -15.1313
rtoes -8.06094
lfemur -26.5652 1.92376 -21.7332
ltibia 40.6764
lfoot -17.193 11.6876
ltoes -18.317
3500
root -0.24777 17.4028 -1.94594 3.73418 -1.27592 3.7038
lowerback 15.6227 2.60474 -3.39532
upperback 12.8011 3.03 0.804339
thorax 4.73274 1.25014 2.41016
lowerneck 9.90892 -9.33362 -9.74721
upperneck 35.563 -11.5721 -3.68048
head 10.4055 -6.63715 -0.282647
rclavicle -3.97569e-015 -9.54166e-015
rhumerus 58.9175 36.7956 -1501.56
rradius 28.3729
rwrist 1440.43
rhand 28.3037 8.52619
rfingers 7.12502
rthumb 52.1756 -11.4746
lclavicle -3.97569e-015 -9.54166e-015
lhumerus 61.3113 7.25543 38.5119
lradius 121.389
lwrist 45.998
lhand -3.30684 32.9252
lfingers 7.12502
lthumb 22.4195 61.6441
rfemur -29.1541 -6.11469 16.7934
rtibia 44.5801
rfoot -18.4592 -15.0665
rtoes -7.4636
lfemur -26.548 1.94979 -21.722
ltibia 40.45
lfoot -17.0392 11.7153
ltoes -18.3602
3501
root -0.243801 17.4199 -1.94326 3.79447 -1.27686 3.64165
lowerback 15.6206 2.60804 -3.32957
upperback 12.7795 3.04061 0.820093
thorax 4.71065 1.25999 2.38824
lowerneck 9.84714 -9.34446 -9.75669
upperneck 35.6358 -11.5704 -3.71131
head 10.4442 -6.64051 -0.298394
rclavicle 1.43125e-014 -1.27222e-014
rhumerus 58.9421 36.7488 -1501.39
rradius 28.4124
rwrist 1439.9
rhand 31.0506 7.8242
rfingers 7.12502
rthumb 54.6489 -10.5654
lclavicle 1.43125e-014 -1.27222e-014
lhumerus 61.3288 7.27826 38.4605
lradius 121.371
lwrist 45.9956
lhand -3.36999 32.9281
lfingers 7.12502
lthumb 22.3588 61.6542
rfemur -29.027 -6.05879 16.8432
rtibia 44.2731
rfoot -18.3464 -15.0888
rtoes -7.37226
lfemur -26.4574 1.99415 -21.6766
ltibia 40.1885
lfoot -16.8296 11.7346
ltoes -18.7882
3502
root -0.239478 17.438 -1.93852 3.8555 -1.29097 3.57718
lowerback 15.611 2.58468 -3.29132
upperback 12.7522 3.0137 0.824297
thorax 4.68807 1.24949 2.37406
lowerneck 9.70179 -9.34 -9.77083
upperneck 35.8004 -11.532 -3.77478
head 10.5312 -6.63305 -0.331144
rclavicle 9.14409e-015 0
rhumerus 58.9488 36.7796 -1501.38
rradius 28.396
rwrist 1439.45
rhand 33.5236 7.09604
rfingers 7.12502
rthumb 56.8438 -9.61934
lclavicle 9.14409e-015 0
lhumerus 61.2495 7.3589 38.3151
lradius 121.348
lwrist 46.1214
lhand -3.65699 32.8507
lfingers 7.12502
lthumb 22.0833 61.6097
rfemur -28.8958 -6.00065 16.9053
rtibia 43.9683
rfoot -18.1719 -15.185
rtoes -7.71962
lfemur -26.3404 2.03362 -21.6257
ltibia 39.8956
lfoot -16.7106 11.7193
ltoes -18.9167
3503
root -0.23562 17.4481 -1.93621 3.98605 -1.30363 3.63748
lowerback 15.5453 2.58939 -3.38094
upperback 12.7024 3.01253 0.808032
thorax 4.66466 1.24438 2.40824
lowerneck 9.67864 -9.36098 -9.71181
upperneck 35.8286 -11.5259 -3.89217
head 10.5335 -6.63329 -0.383506
rclavicle -5.96354e-015 -8.74653e-015
rhumerus 58.8342 36.7169 -1501.53
rradius 28.3382
rwrist 1439.12
rhand 35.5695 6.43995
rfingers 7.12502
rthumb 58.6322 -8.70028
lclavicle -5.96354e-015 -8.74653e-015
lhumerus 61.1994 7.27487 38.17
lradius 121.363
lwrist 46.4371
lhand -4.43855 32.7357
lfingers 7.12502
lthumb 21.3328 61.5815
rfemur -28.8837 -5.89943 16.8081
rtibia 43.6914
rfoot -18.1139 -15.1749
rtoes -7.35599
lfemur -26.3187 2.01706 -21.7145
ltibia 39.592
lfoot -16.5618 11.7542
ltoes -19.0605
3504
root -0.231334 17.4598 -1.93477 4.14507 -1.29449 3.75286
lowerback 15.4735 2.5968 -3.52163
upperback 12.6366 3.01003 0.782809
thorax 4.6254 1.23615 2.46146
lowerneck 9.79189 -9.37396 -9.72839
upperneck 35.6791 -11.5632 -3.8707
head 10.4581 -6.64828 -0.363439
rclavicle 5.00937e-014 -1.59028e-014
rhumerus 58.594 36.6455 -1501.8
rradius 28.3337
rwrist 1438.79
rhand 37.0737 5.59728
rfingers 7.12502
rthumb 59.9284 -8.25801
lclavicle 5.00937e-014 -1.59028e-014
lhumerus 61.1829 7.22008 38.1519
lradius 121.401
lwrist 46.5335
lhand -4.54698 32.7722
lfingers 7.12502
lthumb 21.2286 61.6298
rfemur -28.9008 -5.81975 16.6438
rtibia 43.4194
rfoot -18.1185 -15.1078
rtoes -6.84098
lfemur -26.324 1.97727 -21.8685
ltibia 39.2882
lfoot -16.3871 11.8078
ltoes -19.3312
3505
root -0.226125 17.474 -1.93452 4.29427 -1.25129 3.77967
lowerback 15.44 2.54822 -3.59098
upperback 12.5591 2.94005 0.758189
thorax 4.56039 1.19958 2.48162
lowerneck 9.86687 -9.33611 -9.79633
upperneck 35.5625 -11.558 -3.74915
head 10.412 -6.64429 -0.301351
rclavicle 3.1408e-014 -2.3059e-014
rhumerus 58.3756 36.6217 -1502.19
rradius 28.3208
rwrist 1438.65
rhand 38.3194 4.81533
rfingers 7.12502
rthumb 60.988 -7.88416
lclavicle 3.1408e-014 -2.3059e-014
lhumerus 61.0902 7.37445 38.1645
lradius 121.409
lwrist 46.2939
lhand -3.90312 32.8137
lfingers 7.12502
lthumb 21.847 61.6004
rfemur -28.9065 -5.81094 16.6079
rtibia 43.1515
rfoot -17.9364 -15.1968
rtoes -6.99396
lfemur -26.3138 1.92691 -21.9205
ltibia 38.9922
lfoot -16.2776 11.7668
ltoes -19.1572
3506
root -0.220852 17.4905 -1.93459 4.40432 -1.24622 3.71571
lowerback 15.4469 2.50192 -3.58629
upperback 12.4991 2.87851 0.753768
thorax 4.49462 1.17104 2.4797
lowerneck 9.76538 -9.31226 -9.74133
upperneck 35.6275 -11.5054 -3.80054
head 10.4448 -6.62107 -0.332552
rclavicle -2.78299e-015 3.18055e-015
rhumerus 58.1739 36.5861 -1502.64
rradius 28.3042
rwrist 1438.73
rhand 39.0699 4.24086
rfingers 7.12502
rthumb 61.6198 -7.71858
lclavicle -2.78299e-015 3.18055e-015
lhumerus 60.9726 7.51944 38.1185
lradius 121.465
lwrist 46.2691
lhand -3.85382 32.8159
lfingers 7.12502
lthumb 21.8943 61.5971
rfemur -28.856 -5.77244 16.6617
rtibia 42.8516
rfoot -17.8105 -15.2057
rtoes -6.71102
lfemur -26.2721 1.94938 -21.8751
ltibia 38.6983
lfoot -16.108 11.7435
ltoes -19.074
